<svg xmlns="http://www.w3.org/2000/svg" xmlns:xlink="http://www.w3.org/1999/xlink" width="64" height="64" viewBox="0 0 64 64">
    <defs>
        <path id="a" d="M28.487 28.24c-1.613 0-2.925.324-3.937.97l1.842-10.46h-6.139l-3.827 21.637a6.8 6.8 0 0 0-.109 1.186c0 1.462.554 2.6 1.661 3.415 1.396 1.03 3.399 1.545 6.01 1.545 2.611 0 4.778-.617 6.502-1.85 1.721-1.235 2.787-3.002 3.196-5.303l.726-4.023a8.814 8.814 0 0 0 .18-1.725c0-1.342-.36-2.48-1.08-3.415-.964-1.317-2.637-1.976-5.02-1.977m11.51-.008c2.206 0 3.636.515 4.29 1.544.425.65.652 1.41.654 2.187.006.683-.044 1.365-.149 2.04l-2.18 12.423h-6.18l2.037-11.578a2.5 2.5 0 0 0 .036-.404c.002-.662-.361-.992-1.088-.992a2.988 2.988 0 0 0-1.49.367l.182-4.153c1.138-.956 2.435-1.434 3.888-1.434zm-14.2 5.149c1 0 1.65.197 1.95.593.301.396.452.767.452 1.114.003.27-.01.54-.037.81l-.47 2.694c-.337 1.846-1.432 2.77-3.285 2.769-.915 0-1.517-.36-1.806-1.079l1.048-6.003c.433-.598 1.15-.898 2.148-.898zm17.113-14.64c2.021 0 3.032.887 3.032 2.66 0 1.51-.343 2.613-1.029 3.307-.685.695-1.762 1.042-3.23 1.042-1.996 0-2.995-.863-2.995-2.587 0-1.534.343-2.655 1.028-3.361.686-.707 1.75-1.06 3.194-1.06z"/>
        <path id="b" d="M27.894 27.648c-1.613 0-2.925.323-3.936.97l1.841-10.46h-6.138l-3.828 21.636a6.8 6.8 0 0 0-.109 1.186c0 1.463.554 2.6 1.662 3.415 1.395 1.03 3.398 1.545 6.01 1.545 2.61 0 4.778-.617 6.501-1.85 1.722-1.234 2.787-3.002 3.196-5.302l.726-4.023a8.814 8.814 0 0 0 .18-1.726c0-1.341-.36-2.48-1.08-3.414-.964-1.318-2.637-1.977-5.019-1.977m11.51-.008c2.205 0 3.635.515 4.289 1.543.426.65.653 1.41.654 2.187.006.683-.044 1.365-.148 2.04l-2.18 12.423h-6.18l2.036-11.577a2.5 2.5 0 0 0 .036-.405c.003-.661-.36-.992-1.087-.992a2.988 2.988 0 0 0-1.49.367l.181-4.153c1.139-.956 2.435-1.433 3.889-1.433zm-14.2 5.148c.999 0 1.649.198 1.95.594.3.395.451.766.451 1.114.003.27-.009.54-.036.808L27.105 38c-.337 1.846-1.433 2.768-3.286 2.768-.914 0-1.516-.36-1.805-1.078l1.047-6.003c.434-.599 1.15-.898 2.149-.899zm17.113-14.64c2.02.001 3.031.888 3.031 2.66 0 1.51-.343 2.613-1.028 3.308-.686.694-1.763 1.042-3.23 1.042-1.997 0-2.996-.863-2.996-2.588 0-1.534.343-2.654 1.029-3.361.685-.707 1.75-1.06 3.194-1.06z"/>
    </defs>
    <g fill="none" fill-rule="evenodd">
        <path fill="#AF7F32" d="M63.475 31.737c0 17.529-14.21 31.738-31.738 31.738S0 49.265 0 31.737C0 14.21 14.21 0 31.737 0c17.529 0 31.738 14.21 31.738 31.737"/>
        <path fill="#DDC967" d="M61.95 31.737c0 16.687-13.526 30.214-30.213 30.214-16.686 0-30.213-13.527-30.213-30.214 0-16.686 13.527-30.213 30.213-30.213 16.687 0 30.214 13.527 30.214 30.213"/>
        <path fill="#DDB146" d="M52.602 53.585a30.098 30.098 0 0 1-20.863 8.366c-16.69 0-30.214-13.528-30.214-30.214 0-14.715 10.523-26.978 24.458-29.661-5.761 5.496-9.35 13.253-9.35 21.848 0 16.685 13.523 30.213 30.213 30.213 1.969 0 3.891-.187 5.756-.552"/>
        <path fill="#B07F32" d="M56.963 31.737c0 13.932-11.294 25.227-25.226 25.227-13.931 0-25.226-11.295-25.226-25.227 0-13.931 11.295-25.225 25.226-25.225 13.932 0 25.226 11.294 25.226 25.225"/>
        <path fill="#E6B533" d="M56.048 31.792c0 13.426-10.884 24.31-24.31 24.31-13.426 0-24.31-10.884-24.31-24.31 0-13.426 10.884-24.31 24.31-24.31 13.426 0 24.31 10.884 24.31 24.31"/>
        <path fill="#DA972F" d="M47.487 50.257a24.18 24.18 0 0 1-15.748 5.792c-13.43 0-24.311-10.887-24.311-24.312 0-11.59 8.116-21.29 18.977-23.722-5.24 4.46-8.56 11.096-8.56 18.514 0 13.424 10.883 24.311 24.313 24.311 1.828 0 3.615-.203 5.329-.583"/>
        <path fill="#E8DE47" d="M32.258 5.545a.296.296 0 0 1-.296-.296V2.818a.296.296 0 1 1 .593 0v2.43a.296.296 0 0 1-.297.297M31.217 60.954a.296.296 0 0 1-.297-.296v-2.431a.296.296 0 1 1 .593 0v2.43a.296.296 0 0 1-.296.297M60.657 32.555h-2.43a.296.296 0 1 1 0-.592h2.43a.296.296 0 1 1 0 .592M5.248 31.513h-2.43a.296.296 0 1 1 0-.593h2.43a.296.296 0 1 1 0 .593M50.837 13.672a.296.296 0 0 1-.21-.506l1.72-1.719a.297.297 0 0 1 .418.42l-1.72 1.718a.293.293 0 0 1-.208.087M10.92 52.115a.295.295 0 0 1-.21-.506l1.719-1.719a.297.297 0 0 1 .419.42l-1.72 1.718a.294.294 0 0 1-.208.087M51.819 52.852a.293.293 0 0 1-.21-.087l-1.719-1.72a.297.297 0 0 1 .42-.418l1.718 1.72a.297.297 0 0 1-.21.505M13.375 12.935a.293.293 0 0 1-.209-.087l-1.72-1.719a.297.297 0 0 1 .42-.418l1.72 1.718a.297.297 0 0 1-.21.506M42.31 7.74l-.113-.021a.297.297 0 0 1-.16-.387l.925-2.248a.297.297 0 0 1 .387-.161.297.297 0 0 1 .16.387l-.925 2.247a.295.295 0 0 1-.274.183M20.239 58.575l-.113-.022a.297.297 0 0 1-.161-.387l.926-2.248a.297.297 0 0 1 .548.226l-.926 2.248a.296.296 0 0 1-.274.183M58.279 43.532l-.114-.021-2.247-.927a.296.296 0 1 1 .225-.548l2.248.926a.296.296 0 0 1-.112.57M7.444 21.461l-.112-.022-2.248-.926a.297.297 0 0 1 .226-.548l2.247.926a.296.296 0 0 1-.113.57M56.392 22.332a.297.297 0 0 1-.114-.57l2.243-.934a.297.297 0 0 1 .228.547l-2.244.934-.113.023M4.84 42.67a.297.297 0 0 1-.115-.57l2.245-.934a.297.297 0 0 1 .388.16.297.297 0 0 1-.16.387l-2.245.935-.113.022M42.374 58.932a.297.297 0 0 1-.274-.182l-.934-2.245a.296.296 0 1 1 .547-.227l.935 2.244a.296.296 0 0 1-.16.387l-.114.023M22.036 7.38a.298.298 0 0 1-.274-.182l-.935-2.245a.296.296 0 0 1 .548-.227l.934 2.243a.296.296 0 0 1-.16.388l-.113.023M37.678 6.214l-.061-.006a.296.296 0 0 1-.23-.35l.499-2.38a.297.297 0 0 1 .58.121l-.499 2.38a.295.295 0 0 1-.289.235M25.3 60.233l-.061-.007a.295.295 0 0 1-.23-.35l.499-2.38a.297.297 0 0 1 .58.122l-.5 2.38a.295.295 0 0 1-.288.235M59.937 38.472l-.06-.006-2.38-.499a.296.296 0 1 1 .121-.58l2.38.5a.296.296 0 0 1-.06.585M5.918 26.094l-.06-.006-2.38-.499a.297.297 0 0 1 .121-.58l2.38.499a.296.296 0 0 1-.06.586M54.195 17.977a.297.297 0 0 1-.162-.544l2.035-1.33a.296.296 0 0 1 .324.496l-2.035 1.33a.289.289 0 0 1-.162.048M7.245 47.421a.297.297 0 0 1-.162-.544l2.035-1.33a.296.296 0 1 1 .324.496l-2.035 1.33a.29.29 0 0 1-.162.048M47.125 56.526a.296.296 0 0 1-.249-.134l-1.33-2.035a.297.297 0 0 1 .497-.324l1.33 2.035a.296.296 0 0 1-.248.458M17.68 9.576a.296.296 0 0 1-.248-.134l-1.33-2.035a.296.296 0 1 1 .497-.324l1.33 2.035a.297.297 0 0 1-.248.458M47.066 10.424a.296.296 0 0 1-.245-.463l1.367-2.01a.295.295 0 1 1 .49.333l-1.367 2.01a.296.296 0 0 1-.245.13M15.042 55.654a.297.297 0 0 1-.245-.463l1.368-2.01a.296.296 0 0 1 .49.333l-1.368 2.01a.296.296 0 0 1-.245.13M55.358 48.729a.291.291 0 0 1-.167-.051l-2.01-1.367a.296.296 0 1 1 .334-.49l2.01 1.367a.296.296 0 0 1-.167.54M10.128 16.706a.298.298 0 0 1-.167-.051l-2.01-1.368a.296.296 0 1 1 .333-.49l2.01 1.367a.297.297 0 0 1-.166.542M57.857 27.592a.297.297 0 0 1-.056-.588l2.388-.454a.296.296 0 1 1 .111.583l-2.388.454-.055.005M3.23 36.93a.296.296 0 0 1-.055-.587l2.388-.454a.295.295 0 0 1 .346.235.295.295 0 0 1-.235.347l-2.388.455-.056.004M36.633 60.541a.296.296 0 0 1-.29-.24l-.455-2.389a.297.297 0 0 1 .583-.11l.454 2.387a.296.296 0 0 1-.235.347l-.057.005M27.295 5.915a.296.296 0 0 1-.29-.24l-.455-2.39a.296.296 0 1 1 .582-.11l.455 2.388a.296.296 0 0 1-.236.346l-.056.006"/>
        <path fill="#D2A030" d="M34.862 5.873l-.044-.002a.444.444 0 0 1-.398-.487l.239-2.419a.444.444 0 0 1 .884.088l-.24 2.419a.444.444 0 0 1-.44.4M28.375 60.91l-.045-.002a.444.444 0 0 1-.398-.485l.24-2.42a.444.444 0 1 1 .883.088l-.238 2.419a.444.444 0 0 1-.442.4M60.466 35.545l-.044-.001-2.419-.24a.444.444 0 0 1 .088-.884l2.419.238a.445.445 0 0 1-.044.887M5.429 29.058l-.045-.002-2.419-.24a.444.444 0 0 1 .088-.884l2.419.24a.444.444 0 0 1-.043.886M52.55 15.788a.445.445 0 0 1-.282-.788l1.88-1.542a.445.445 0 0 1 .564.688l-1.88 1.541a.443.443 0 0 1-.281.1M9.045 50.118a.445.445 0 0 1-.282-.788l1.88-1.542a.444.444 0 1 1 .564.688l-1.88 1.541a.441.441 0 0 1-.282.1M49.673 54.875a.443.443 0 0 1-.343-.163l-1.542-1.88a.445.445 0 0 1 .688-.564l1.541 1.88a.445.445 0 0 1-.344.727M15.343 11.37a.446.446 0 0 1-.344-.163l-1.541-1.88a.444.444 0 1 1 .687-.564l1.542 1.88a.445.445 0 0 1-.344.726M44.648 9.047a.446.446 0 0 1-.392-.654l1.143-2.145a.446.446 0 0 1 .785.417L45.04 8.811a.444.444 0 0 1-.393.236M17.683 57.463a.444.444 0 0 1-.392-.653l1.143-2.146a.445.445 0 0 1 .784.418l-1.142 2.146a.445.445 0 0 1-.393.235M57.018 46.236a.44.44 0 0 1-.209-.052l-2.145-1.143a.446.446 0 0 1 .417-.784l2.146 1.142a.446.446 0 0 1-.209.837M8.601 19.271a.447.447 0 0 1-.208-.052l-2.145-1.143a.445.445 0 0 1 .417-.785l2.146 1.143a.446.446 0 0 1-.21.837M57.226 24.952a.445.445 0 0 1-.13-.87l2.326-.708a.444.444 0 1 1 .26.85l-2.326.71-.13.018M3.924 40.12a.445.445 0 0 1-.13-.87l2.325-.708a.444.444 0 1 1 .26.85l-2.326.71-.13.019M39.676 59.996a.446.446 0 0 1-.425-.315l-.71-2.325a.445.445 0 0 1 .851-.26l.71 2.326a.445.445 0 0 1-.296.554l-.13.02M24.508 6.693a.446.446 0 0 1-.426-.314l-.709-2.326a.445.445 0 0 1 .851-.26l.71 2.326a.445.445 0 0 1-.296.555l-.13.02M40.188 7.072l-.133-.02a.444.444 0 0 1-.29-.558l.73-2.319a.444.444 0 1 1 .848.267l-.73 2.319a.445.445 0 0 1-.425.311M22.556 59.611l-.133-.02a.444.444 0 0 1-.29-.558l.73-2.318a.445.445 0 0 1 .849.267l-.732 2.318a.445.445 0 0 1-.424.311M59.167 41.364l-.134-.021-2.319-.73a.444.444 0 1 1 .267-.848l2.32.73a.445.445 0 0 1-.134.869M6.627 23.731l-.133-.02-2.32-.73a.444.444 0 1 1 .268-.848l2.319.73a.444.444 0 0 1-.134.868M55.47 20.402a.445.445 0 0 1-.206-.838l2.155-1.124a.444.444 0 0 1 .412.788l-2.156 1.124a.439.439 0 0 1-.205.05M5.85 45.085a.444.444 0 0 1-.206-.838l2.157-1.123a.444.444 0 1 1 .41.788l-2.155 1.123a.444.444 0 0 1-.205.05M44.641 58.07a.444.444 0 0 1-.394-.24l-1.124-2.155a.445.445 0 0 1 .788-.412l1.124 2.157a.444.444 0 0 1-.394.65M19.959 8.45a.444.444 0 0 1-.395-.238L18.44 6.056a.445.445 0 0 1 .788-.411l1.124 2.156a.444.444 0 0 1-.393.65M49.118 12.185a.443.443 0 0 1-.342-.729l1.558-1.866a.446.446 0 0 1 .683.57l-1.558 1.865a.447.447 0 0 1-.341.16M12.8 54.045a.445.445 0 0 1-.34-.73l1.557-1.865a.444.444 0 1 1 .682.57l-1.558 1.866a.445.445 0 0 1-.342.159M53.6 51.12a.44.44 0 0 1-.284-.103l-1.866-1.559a.445.445 0 0 1 .57-.682l1.865 1.558a.444.444 0 0 1-.284.786M11.74 14.802a.442.442 0 0 1-.285-.103L9.59 13.141a.444.444 0 1 1 .57-.682l1.866 1.558a.445.445 0 0 1-.285.785M58.167 30.331a.444.444 0 0 1-.04-.887l2.422-.217a.444.444 0 1 1 .08.885l-2.422.217-.04.002M2.887 34.25a.444.444 0 0 1-.04-.886l2.42-.218a.445.445 0 0 1 .08.885l-2.42.218-.04.002M33.806 61.033a.444.444 0 0 1-.442-.405l-.219-2.42a.445.445 0 0 1 .886-.08l.218 2.42a.445.445 0 0 1-.403.483l-.04.002M29.886 5.752a.445.445 0 0 1-.442-.404l-.218-2.422a.445.445 0 0 1 .885-.079l.218 2.422a.445.445 0 0 1-.402.482l-.041.001"/>
        <use fill="#000" opacity=".785" xlink:href="#a"/>
        <use fill="#7D491C" xlink:href="#b"/>
    </g>
</svg>
